<mxfile host="app.diagrams.net" modified="2023-05-26T07:40:10.538Z" agent="Mozilla/5.0 (Windows NT 10.0; Win64; x64) AppleWebKit/537.36 (KHTML, like Gecko) Chrome/113.0.0.0 Safari/537.36" etag="hSzep2aETJ8zbxl_Qgfr" version="21.3.4" type="device">
  <diagram name="第 1 页" id="1bQCLbJpFhF-mfvl0XeS">
    <mxGraphModel dx="2418" dy="1843" grid="1" gridSize="1" guides="1" tooltips="1" connect="1" arrows="1" fold="1" page="1" pageScale="1" pageWidth="827" pageHeight="1169" math="0" shadow="0">
      <root>
        <mxCell id="0" />
        <mxCell id="1" parent="0" />
        <mxCell id="cVqaVuBIv6u9hTT0CM2t-71" value="" style="rounded=0;whiteSpace=wrap;html=1;fillColor=#eeeeee;strokeColor=#36393d;" parent="1" vertex="1">
          <mxGeometry x="-1" y="-172" width="1181" height="1722" as="geometry" />
        </mxCell>
        <mxCell id="cVqaVuBIv6u9hTT0CM2t-9" style="edgeStyle=orthogonalEdgeStyle;rounded=0;orthogonalLoop=1;jettySize=auto;html=1;" parent="1" source="cVqaVuBIv6u9hTT0CM2t-1" target="cVqaVuBIv6u9hTT0CM2t-7" edge="1">
          <mxGeometry relative="1" as="geometry" />
        </mxCell>
        <mxCell id="cVqaVuBIv6u9hTT0CM2t-1" value="阿里云公网负载" style="rounded=0;whiteSpace=wrap;html=1;fillColor=#dae8fc;strokeColor=#6c8ebf;" parent="1" vertex="1">
          <mxGeometry x="305" y="170" width="120" height="60" as="geometry" />
        </mxCell>
        <mxCell id="cVqaVuBIv6u9hTT0CM2t-2" value="&lt;font style=&quot;font-size: 20px;&quot;&gt;swift 架构&lt;/font&gt;" style="text;html=1;strokeColor=#3700CC;fillColor=#6a00ff;align=center;verticalAlign=middle;whiteSpace=wrap;rounded=1;fontColor=#ffffff;shadow=1;glass=0;strokeWidth=1;fillStyle=auto;fontSize=20;" parent="1" vertex="1">
          <mxGeometry x="489" y="-120" width="210" height="90" as="geometry" />
        </mxCell>
        <mxCell id="cVqaVuBIv6u9hTT0CM2t-4" style="edgeStyle=orthogonalEdgeStyle;rounded=0;orthogonalLoop=1;jettySize=auto;html=1;" parent="1" source="cVqaVuBIv6u9hTT0CM2t-3" target="cVqaVuBIv6u9hTT0CM2t-1" edge="1">
          <mxGeometry relative="1" as="geometry" />
        </mxCell>
        <mxCell id="cVqaVuBIv6u9hTT0CM2t-3" value="公网域名例如： api-shipping.sherpa.com.cn" style="text;html=1;align=center;verticalAlign=middle;resizable=0;points=[];autosize=1;strokeColor=none;fillColor=none;" parent="1" vertex="1">
          <mxGeometry x="235" y="80" width="260" height="30" as="geometry" />
        </mxCell>
        <mxCell id="cVqaVuBIv6u9hTT0CM2t-6" value="public-slb/47.100.77.24&lt;br&gt;监听80，443端口" style="text;html=1;strokeColor=none;fillColor=none;align=center;verticalAlign=middle;whiteSpace=wrap;rounded=0;" parent="1" vertex="1">
          <mxGeometry x="425" y="182.5" width="190" height="35" as="geometry" />
        </mxCell>
        <mxCell id="cVqaVuBIv6u9hTT0CM2t-17" style="edgeStyle=orthogonalEdgeStyle;rounded=0;orthogonalLoop=1;jettySize=auto;html=1;entryX=0.47;entryY=-0.004;entryDx=0;entryDy=0;entryPerimeter=0;" parent="1" source="cVqaVuBIv6u9hTT0CM2t-7" target="cVqaVuBIv6u9hTT0CM2t-11" edge="1">
          <mxGeometry relative="1" as="geometry" />
        </mxCell>
        <mxCell id="cVqaVuBIv6u9hTT0CM2t-7" value="kong" style="rounded=0;whiteSpace=wrap;html=1;fillColor=#d5e8d4;strokeColor=#82b366;" parent="1" vertex="1">
          <mxGeometry x="305" y="290" width="120" height="60" as="geometry" />
        </mxCell>
        <mxCell id="cVqaVuBIv6u9hTT0CM2t-8" value="10.8.0.3&lt;br&gt;10.8.0.4" style="text;html=1;strokeColor=none;fillColor=none;align=center;verticalAlign=middle;whiteSpace=wrap;rounded=0;" parent="1" vertex="1">
          <mxGeometry x="386" y="302.5" width="190" height="35" as="geometry" />
        </mxCell>
        <mxCell id="cVqaVuBIv6u9hTT0CM2t-25" style="edgeStyle=orthogonalEdgeStyle;rounded=0;orthogonalLoop=1;jettySize=auto;html=1;entryX=0.5;entryY=0;entryDx=0;entryDy=0;" parent="1" source="cVqaVuBIv6u9hTT0CM2t-11" target="cVqaVuBIv6u9hTT0CM2t-22" edge="1">
          <mxGeometry relative="1" as="geometry" />
        </mxCell>
        <mxCell id="cVqaVuBIv6u9hTT0CM2t-11" value="" style="rounded=0;whiteSpace=wrap;html=1;fillColor=#fff2cc;strokeColor=#d6b656;" parent="1" vertex="1">
          <mxGeometry x="187" y="420" width="380" height="240" as="geometry" />
        </mxCell>
        <mxCell id="cVqaVuBIv6u9hTT0CM2t-12" value="php7&lt;br&gt;&lt;br&gt;10.8.0.16&lt;br&gt;10.8.0.17" style="whiteSpace=wrap;html=1;aspect=fixed;" parent="1" vertex="1">
          <mxGeometry x="270" y="440" width="90" height="90" as="geometry" />
        </mxCell>
        <mxCell id="cVqaVuBIv6u9hTT0CM2t-14" value="php5&lt;br&gt;&lt;br&gt;10.8.0.12&lt;br&gt;10.8.0.12&lt;br&gt;10.8.0.13&lt;br&gt;10.8.0.14" style="whiteSpace=wrap;html=1;aspect=fixed;" parent="1" vertex="1">
          <mxGeometry x="410" y="440" width="90" height="90" as="geometry" />
        </mxCell>
        <mxCell id="cVqaVuBIv6u9hTT0CM2t-15" value="php7 pre&lt;br&gt;&lt;br&gt;10.8.0.51" style="whiteSpace=wrap;html=1;aspect=fixed;" parent="1" vertex="1">
          <mxGeometry x="270" y="550" width="90" height="90" as="geometry" />
        </mxCell>
        <mxCell id="cVqaVuBIv6u9hTT0CM2t-16" value="php5 pre&lt;br&gt;&lt;br&gt;10.8.0.50" style="whiteSpace=wrap;html=1;aspect=fixed;" parent="1" vertex="1">
          <mxGeometry x="410" y="550" width="90" height="90" as="geometry" />
        </mxCell>
        <mxCell id="cVqaVuBIv6u9hTT0CM2t-18" value="api" style="text;html=1;strokeColor=#006EAF;fillColor=#1ba1e2;align=center;verticalAlign=middle;whiteSpace=wrap;rounded=0;fontColor=#ffffff;" parent="1" vertex="1">
          <mxGeometry x="200" y="430" width="60" height="30" as="geometry" />
        </mxCell>
        <mxCell id="cVqaVuBIv6u9hTT0CM2t-76" style="edgeStyle=orthogonalEdgeStyle;rounded=0;orthogonalLoop=1;jettySize=auto;html=1;entryX=0.327;entryY=-0.009;entryDx=0;entryDy=0;entryPerimeter=0;" parent="1" source="cVqaVuBIv6u9hTT0CM2t-20" target="cVqaVuBIv6u9hTT0CM2t-42" edge="1">
          <mxGeometry relative="1" as="geometry" />
        </mxCell>
        <mxCell id="cVqaVuBIv6u9hTT0CM2t-20" value="" style="rounded=0;whiteSpace=wrap;html=1;fillColor=#fff2cc;strokeColor=#d6b656;" parent="1" vertex="1">
          <mxGeometry x="176" y="920" width="380" height="170" as="geometry" />
        </mxCell>
        <mxCell id="cVqaVuBIv6u9hTT0CM2t-85" style="edgeStyle=orthogonalEdgeStyle;rounded=0;orthogonalLoop=1;jettySize=auto;html=1;" parent="1" source="cVqaVuBIv6u9hTT0CM2t-22" target="cVqaVuBIv6u9hTT0CM2t-28" edge="1">
          <mxGeometry relative="1" as="geometry" />
        </mxCell>
        <mxCell id="cVqaVuBIv6u9hTT0CM2t-22" value="阿里云私网负载" style="rounded=0;whiteSpace=wrap;html=1;fillColor=#dae8fc;strokeColor=#6c8ebf;" parent="1" vertex="1">
          <mxGeometry x="317" y="725" width="120" height="60" as="geometry" />
        </mxCell>
        <mxCell id="cVqaVuBIv6u9hTT0CM2t-23" value="private-slb/10.8.253.241&lt;br&gt;监听9801，9502，80端口" style="text;html=1;strokeColor=none;fillColor=none;align=center;verticalAlign=middle;whiteSpace=wrap;rounded=0;" parent="1" vertex="1">
          <mxGeometry x="440" y="737.5" width="190" height="35" as="geometry" />
        </mxCell>
        <mxCell id="cVqaVuBIv6u9hTT0CM2t-69" style="edgeStyle=orthogonalEdgeStyle;rounded=0;orthogonalLoop=1;jettySize=auto;html=1;entryX=0.529;entryY=0.002;entryDx=0;entryDy=0;entryPerimeter=0;" parent="1" source="cVqaVuBIv6u9hTT0CM2t-28" target="cVqaVuBIv6u9hTT0CM2t-20" edge="1">
          <mxGeometry relative="1" as="geometry" />
        </mxCell>
        <mxCell id="cVqaVuBIv6u9hTT0CM2t-28" value="haproxy" style="text;html=1;strokeColor=#006EAF;fillColor=#1ba1e2;align=center;verticalAlign=middle;whiteSpace=wrap;rounded=0;fontColor=#ffffff;" parent="1" vertex="1">
          <mxGeometry x="317" y="820" width="120" height="60" as="geometry" />
        </mxCell>
        <mxCell id="cVqaVuBIv6u9hTT0CM2t-33" value="php&lt;br&gt;10.8.0.31&lt;br&gt;10.8.0.32&lt;br&gt;10.8.0.33" style="whiteSpace=wrap;html=1;aspect=fixed;" parent="1" vertex="1">
          <mxGeometry x="217" y="980" width="80" height="80" as="geometry" />
        </mxCell>
        <mxCell id="cVqaVuBIv6u9hTT0CM2t-34" value="swoole(9801)&lt;br&gt;10.8.0.31&lt;br&gt;10.8.0.32&lt;br&gt;10.8.0.33" style="whiteSpace=wrap;html=1;aspect=fixed;" parent="1" vertex="1">
          <mxGeometry x="339" y="980" width="80" height="80" as="geometry" />
        </mxCell>
        <mxCell id="cVqaVuBIv6u9hTT0CM2t-35" value="hyperf(9502)&lt;br&gt;10.8.0.36&lt;br&gt;10.8.0.37" style="whiteSpace=wrap;html=1;aspect=fixed;" parent="1" vertex="1">
          <mxGeometry x="452" y="980" width="80" height="80" as="geometry" />
        </mxCell>
        <mxCell id="cVqaVuBIv6u9hTT0CM2t-41" value="soa" style="text;html=1;strokeColor=#006EAF;fillColor=#1ba1e2;align=center;verticalAlign=middle;whiteSpace=wrap;rounded=0;fontColor=#ffffff;" parent="1" vertex="1">
          <mxGeometry x="192" y="930" width="60" height="30" as="geometry" />
        </mxCell>
        <mxCell id="cVqaVuBIv6u9hTT0CM2t-42" value="pull" style="rounded=0;whiteSpace=wrap;html=1;fillColor=#f9f7ed;strokeColor=#36393d;" parent="1" vertex="1">
          <mxGeometry x="118" y="1140" width="762" height="330" as="geometry" />
        </mxCell>
        <mxCell id="cVqaVuBIv6u9hTT0CM2t-43" value="app" style="text;html=1;strokeColor=#006EAF;fillColor=#1ba1e2;align=center;verticalAlign=middle;whiteSpace=wrap;rounded=0;fontColor=#ffffff;" parent="1" vertex="1">
          <mxGeometry x="132" y="1150" width="60" height="30" as="geometry" />
        </mxCell>
        <mxCell id="cVqaVuBIv6u9hTT0CM2t-44" value="mysql&lt;br&gt;10.8.0.111&lt;br&gt;10.8.0.112&lt;br&gt;10.8.0.113" style="whiteSpace=wrap;html=1;aspect=fixed;" parent="1" vertex="1">
          <mxGeometry x="201" y="1199" width="89" height="89" as="geometry" />
        </mxCell>
        <mxCell id="cVqaVuBIv6u9hTT0CM2t-45" value="mongodb&lt;br&gt;10.8.0.101&lt;br&gt;10.8.0.102&lt;br&gt;10.8.0.103&lt;br&gt;" style="whiteSpace=wrap;html=1;aspect=fixed;" parent="1" vertex="1">
          <mxGeometry x="347" y="1200.75" width="85.5" height="85.5" as="geometry" />
        </mxCell>
        <mxCell id="cVqaVuBIv6u9hTT0CM2t-82" style="edgeStyle=orthogonalEdgeStyle;rounded=0;orthogonalLoop=1;jettySize=auto;html=1;entryX=0.5;entryY=0;entryDx=0;entryDy=0;" parent="1" source="cVqaVuBIv6u9hTT0CM2t-46" target="cVqaVuBIv6u9hTT0CM2t-73" edge="1">
          <mxGeometry relative="1" as="geometry" />
        </mxCell>
        <mxCell id="cVqaVuBIv6u9hTT0CM2t-46" value="rabbitmq&lt;br&gt;&lt;br&gt;10.8.0.151" style="whiteSpace=wrap;html=1;aspect=fixed;" parent="1" vertex="1">
          <mxGeometry x="491" y="1199" width="80" height="80" as="geometry" />
        </mxCell>
        <mxCell id="cVqaVuBIv6u9hTT0CM2t-47" value="redis&lt;br&gt;阿里云&lt;br&gt;data-prod&lt;br&gt;session-prod" style="whiteSpace=wrap;html=1;aspect=fixed;" parent="1" vertex="1">
          <mxGeometry x="201" y="1319" width="90" height="90" as="geometry" />
        </mxCell>
        <mxCell id="cVqaVuBIv6u9hTT0CM2t-86" style="edgeStyle=orthogonalEdgeStyle;rounded=0;orthogonalLoop=1;jettySize=auto;html=1;" parent="1" source="cVqaVuBIv6u9hTT0CM2t-48" target="cVqaVuBIv6u9hTT0CM2t-46" edge="1">
          <mxGeometry relative="1" as="geometry" />
        </mxCell>
        <mxCell id="cVqaVuBIv6u9hTT0CM2t-48" value="supervisor&lt;br&gt;10.8.0.34&lt;br&gt;10.8.0.35" style="whiteSpace=wrap;html=1;aspect=fixed;" parent="1" vertex="1">
          <mxGeometry x="695" y="1199" width="80" height="80" as="geometry" />
        </mxCell>
        <mxCell id="cVqaVuBIv6u9hTT0CM2t-52" value="10.8.0.5&lt;br&gt;10.8.0.6" style="text;html=1;strokeColor=none;fillColor=none;align=center;verticalAlign=middle;whiteSpace=wrap;rounded=0;" parent="1" vertex="1">
          <mxGeometry x="410" y="832.5" width="190" height="35" as="geometry" />
        </mxCell>
        <mxCell id="cVqaVuBIv6u9hTT0CM2t-59" style="edgeStyle=orthogonalEdgeStyle;rounded=0;orthogonalLoop=1;jettySize=auto;html=1;" parent="1" source="cVqaVuBIv6u9hTT0CM2t-55" target="cVqaVuBIv6u9hTT0CM2t-58" edge="1">
          <mxGeometry relative="1" as="geometry" />
        </mxCell>
        <mxCell id="cVqaVuBIv6u9hTT0CM2t-55" value="ops（10.8.0.1）" style="rounded=0;whiteSpace=wrap;html=1;fillColor=#cce5ff;strokeColor=#36393d;" parent="1" vertex="1">
          <mxGeometry x="775" y="170" width="120" height="60" as="geometry" />
        </mxCell>
        <mxCell id="cVqaVuBIv6u9hTT0CM2t-57" style="edgeStyle=orthogonalEdgeStyle;rounded=0;orthogonalLoop=1;jettySize=auto;html=1;" parent="1" source="cVqaVuBIv6u9hTT0CM2t-56" target="cVqaVuBIv6u9hTT0CM2t-55" edge="1">
          <mxGeometry relative="1" as="geometry" />
        </mxCell>
        <mxCell id="cVqaVuBIv6u9hTT0CM2t-56" value="后台服务例如：swiftmanage-admin.sherpa.com.cn&lt;br&gt;阿里云公网域名解析到ops机器）" style="text;html=1;align=center;verticalAlign=middle;resizable=0;points=[];autosize=1;strokeColor=none;fillColor=none;" parent="1" vertex="1">
          <mxGeometry x="690" y="83" width="290" height="40" as="geometry" />
        </mxCell>
        <mxCell id="cVqaVuBIv6u9hTT0CM2t-68" style="edgeStyle=orthogonalEdgeStyle;rounded=0;orthogonalLoop=1;jettySize=auto;html=1;entryX=0.5;entryY=0;entryDx=0;entryDy=0;" parent="1" source="cVqaVuBIv6u9hTT0CM2t-58" target="cVqaVuBIv6u9hTT0CM2t-60" edge="1">
          <mxGeometry relative="1" as="geometry" />
        </mxCell>
        <mxCell id="cVqaVuBIv6u9hTT0CM2t-58" value="nginx&lt;br&gt;（new-houtai.conf）" style="rounded=0;whiteSpace=wrap;html=1;fillColor=#d5e8d4;strokeColor=#82b366;" parent="1" vertex="1">
          <mxGeometry x="775" y="290" width="120" height="60" as="geometry" />
        </mxCell>
        <mxCell id="cVqaVuBIv6u9hTT0CM2t-60" value="" style="rounded=0;whiteSpace=wrap;html=1;fillColor=#fff2cc;strokeColor=#d6b656;" parent="1" vertex="1">
          <mxGeometry x="645" y="420" width="380" height="240" as="geometry" />
        </mxCell>
        <mxCell id="cVqaVuBIv6u9hTT0CM2t-61" value="swift-php&lt;br&gt;&lt;br&gt;10.8.0.15" style="whiteSpace=wrap;html=1;aspect=fixed;" parent="1" vertex="1">
          <mxGeometry x="728" y="440" width="90" height="90" as="geometry" />
        </mxCell>
        <mxCell id="cVqaVuBIv6u9hTT0CM2t-62" value="php7-swift&lt;br&gt;&lt;br&gt;10.8.0.16&lt;br&gt;10.8.0.17" style="whiteSpace=wrap;html=1;aspect=fixed;" parent="1" vertex="1">
          <mxGeometry x="868" y="440" width="90" height="90" as="geometry" />
        </mxCell>
        <mxCell id="cVqaVuBIv6u9hTT0CM2t-63" value="pre-php7-swift&lt;br&gt;10.8.0.51" style="whiteSpace=wrap;html=1;aspect=fixed;" parent="1" vertex="1">
          <mxGeometry x="728" y="550" width="90" height="90" as="geometry" />
        </mxCell>
        <mxCell id="cVqaVuBIv6u9hTT0CM2t-64" value="website&lt;br&gt;&lt;br&gt;10.6.0.141" style="whiteSpace=wrap;html=1;aspect=fixed;" parent="1" vertex="1">
          <mxGeometry x="868" y="550" width="90" height="90" as="geometry" />
        </mxCell>
        <mxCell id="cVqaVuBIv6u9hTT0CM2t-65" value="houtai" style="text;html=1;strokeColor=#006EAF;fillColor=#1ba1e2;align=center;verticalAlign=middle;whiteSpace=wrap;rounded=0;fontColor=#ffffff;" parent="1" vertex="1">
          <mxGeometry x="658" y="430" width="60" height="30" as="geometry" />
        </mxCell>
        <mxCell id="cVqaVuBIv6u9hTT0CM2t-81" style="edgeStyle=orthogonalEdgeStyle;rounded=0;orthogonalLoop=1;jettySize=auto;html=1;entryX=0;entryY=0.5;entryDx=0;entryDy=0;" parent="1" source="cVqaVuBIv6u9hTT0CM2t-73" target="cVqaVuBIv6u9hTT0CM2t-74" edge="1">
          <mxGeometry relative="1" as="geometry">
            <Array as="points">
              <mxPoint x="620" y="1369" />
              <mxPoint x="620" y="1369" />
            </Array>
          </mxGeometry>
        </mxCell>
        <mxCell id="cVqaVuBIv6u9hTT0CM2t-73" value="logstash&lt;br&gt;10.8.0.191" style="whiteSpace=wrap;html=1;aspect=fixed;" parent="1" vertex="1">
          <mxGeometry x="491" y="1329" width="80" height="80" as="geometry" />
        </mxCell>
        <mxCell id="cVqaVuBIv6u9hTT0CM2t-74" value="mongodb log&lt;br&gt;10.8.0.191" style="whiteSpace=wrap;html=1;aspect=fixed;" parent="1" vertex="1">
          <mxGeometry x="695" y="1329" width="80" height="80" as="geometry" />
        </mxCell>
        <mxCell id="cVqaVuBIv6u9hTT0CM2t-83" value="push" style="text;html=1;strokeColor=none;fillColor=none;align=center;verticalAlign=middle;whiteSpace=wrap;rounded=0;" parent="1" vertex="1">
          <mxGeometry x="605" y="1379" width="60" height="30" as="geometry" />
        </mxCell>
        <mxCell id="cVqaVuBIv6u9hTT0CM2t-84" style="edgeStyle=orthogonalEdgeStyle;rounded=0;orthogonalLoop=1;jettySize=auto;html=1;exitX=0.5;exitY=1;exitDx=0;exitDy=0;" parent="1" source="cVqaVuBIv6u9hTT0CM2t-83" target="cVqaVuBIv6u9hTT0CM2t-83" edge="1">
          <mxGeometry relative="1" as="geometry" />
        </mxCell>
      </root>
    </mxGraphModel>
  </diagram>
</mxfile>
